<svg height="496pt" viewBox="0 0 496 496" width="496pt" xmlns="http://www.w3.org/2000/svg"><path d="m56 464v24h-48v-144h48zm0 0" fill="#b4dd7f"/><g fill="#f0d0b4"><path d="m256 392c8.800781 0 16 7.199219 16 16 0 4.398438-1.761719 8.398438-4.71875 11.28125-2.882812 2.957031-6.882812 4.71875-11.28125 4.71875h-48c-8.800781 0-16-7.199219-16-16 0-4.398438 1.761719-8.398438 4.71875-11.28125 2.882812-2.957031 6.882812-4.71875 11.28125-4.71875zm0 0"/><path d="m256 424c8.800781 0 16 7.199219 16 16 0 4.398438-1.761719 8.398438-4.71875 11.28125-2.882812 2.957031-6.882812 4.71875-11.28125 4.71875h-48c-8.800781 0-16-7.199219-16-16 0-4.398438 1.761719-8.398438 4.71875-11.28125 2.882812-2.957031 6.882812-4.71875 11.28125-4.71875zm0 0"/><path d="m256 360c8.800781 0 16 7.199219 16 16 0 4.398438-1.761719 8.398438-4.71875 11.28125-2.882812 2.957031-6.882812 4.71875-11.28125 4.71875h-48c-8.800781 0-16-7.199219-16-16 0-4.398438 1.761719-8.398438 4.71875-11.28125 2.882812-2.957031 6.882812-4.71875 11.28125-4.71875zm0 0"/><path d="m256 456c8.800781 0 16 7.199219 16 16 0 4.398438-1.761719 8.398438-4.71875 11.28125-2.882812 2.957031-6.882812 4.71875-11.28125 4.71875h-48c-8.800781 0-16-7.199219-16-16 0-4.398438 1.761719-8.398438 4.71875-11.28125 2.882812-2.957031 6.882812-4.71875 11.28125-4.71875zm0 0"/><path d="m152 360v128h-24l-32-24h-40v-104h40l32-32h96c8.800781 0 16 7.199219 16 16 0 4.398438-1.761719 8.398438-4.71875 11.28125-2.882812 2.957031-6.882812 4.71875-11.28125 4.71875zm0 0"/></g><path d="m192 472c0 8.800781 7.199219 16 16 16h-56v-128h56c-4.398438 0-8.398438 1.761719-11.28125 4.71875-2.957031 2.882812-4.71875 6.882812-4.71875 11.28125 0 8.800781 7.199219 16 16 16-4.398438 0-8.398438 1.761719-11.28125 4.71875-2.957031 2.882812-4.71875 6.882812-4.71875 11.28125 0 8.800781 7.199219 16 16 16-4.398438 0-8.398438 1.761719-11.28125 4.71875-2.957031 2.882812-4.71875 6.882812-4.71875 11.28125 0 8.800781 7.199219 16 16 16-4.398438 0-8.398438 1.761719-11.28125 4.71875-2.957031 2.882812-4.71875 6.882812-4.71875 11.28125zm0 0" fill="#838f9b"/><path d="m152 296h64v32h-64zm0 0" fill="#838f9b"/><path d="m232 264v32h-96v-32zm0 0" fill="#aab2bd"/><path d="m208 88 8 32h-96l8-32zm0 0" fill="#ff826e"/><path d="m72 136v112l-32-8v-96zm0 0" fill="#ff826e"/><path d="m248 168v-48.238281c68.320312-2.722657 132.480469-34.5625 176-87.761719v320c-43.519531-53.199219-107.679688-85.039062-176-87.761719zm0 0" fill="#e6e9ed"/><path d="m248 120v48h-96v48h96v48.238281c-3.199219-.160156-6.480469-.238281-9.679688-.238281h-158.320312c-4.398438 0-8-3.601562-8-8v-128c0-4.398438 3.601562-8 8-8h158.320312c3.199219 0 6.480469-.078125 9.679688-.238281zm0 0" fill="#e6e9ed"/><path d="m152 168h32v48h-32zm0 0" fill="#fcd770"/><path d="m216 168h32v48h-32zm0 0" fill="#fcd770"/><path d="m184 168h32v48h-32zm0 0" fill="#fcd770"/><path d="m456 237.28125v114.71875c0 8.800781-7.199219 16-16 16s-16-7.199219-16-16v-320c0-8.800781 7.199219-16 16-16 4.398438 0 8.398438 1.761719 11.28125 4.71875 2.957031 2.882812 4.71875 6.882812 4.71875 11.28125zm0 0" fill="#fcd770"/><path d="m456 146.71875c18.640625 6.640625 32 24.402344 32 45.28125s-13.359375 38.640625-32 45.28125zm0 0" fill="#ff826e"/><path d="m404.761719 97.214844-9.515625-12.855469c-5.0625 3.746094-10.277344 7.335937-15.527344 10.664063l8.578125 13.503906c5.558594-3.527344 11.101563-7.34375 16.464844-11.3125zm0 0"/><path d="m256 352h-9.472656c.898437-2.511719 1.472656-5.183594 1.472656-8 0-13.230469-10.769531-24-24-24v-16h16v-31.953125c68.464844.496094 132.503906 30.769531 176.34375 83.328125 1.65625 11.625 11.578125 20.625 23.65625 20.625 13.230469 0 24-10.769531 24-24v-109.558594c19.3125-9.203125 32-28.722656 32-50.441406s-12.6875-41.238281-32-50.441406v-109.558594c0-13.230469-10.769531-24-24-24-12.078125 0-22 9-23.65625 20.625-44.199219 52.992188-108.945312 83.375-178.046875 83.375h-16.058594l-7.992187-32h-92.492188l-7.992187 32h-33.761719c-8.824219 0-16 7.175781-16 16v1.753906l-32 8v108.492188l32 8v1.753906c0 8.824219 7.175781 16 16 16h48v32h16v16h-19.3125l-32 32h-28.6875v-16h-64v160h64v-24h29.335938l32 24h130.664062c13.230469 0 24-10.769531 24-24 0-6.167969-2.40625-11.742188-6.238281-16 3.839843-4.257812 6.238281-9.832031 6.238281-16s-2.40625-11.742188-6.238281-16c3.839843-4.257812 6.238281-9.832031 6.238281-16s-2.40625-11.742188-6.238281-16c3.839843-4.257812 6.238281-9.832031 6.238281-16 0-13.230469-10.769531-24-24-24zm-208-118.246094v-83.507812l16-4v91.507812zm216 142.246094c0 4.40625-3.585938 8-8 8h-48c-4.414062 0-8-3.59375-8-8s3.585938-8 8-8h48c4.414062 0 8 3.59375 8 8zm0 32c0 4.40625-3.585938 8-8 8h-48c-4.414062 0-8-3.59375-8-8s3.585938-8 8-8h48c4.414062 0 8 3.59375 8 8zm0 32c0 4.40625-3.585938 8-8 8h-48c-4.414062 0-8-3.59375-8-8s3.585938-8 8-8h48c4.414062 0 8 3.59375 8 8zm-104-232v-32h16v32zm32-32h16v32h-16zm32 0h16v32h-16zm256 16c0 12.792969-6.128906 24.550781-16 31.984375v-63.96875c9.871094 7.433594 16 19.191406 16 31.984375zm-48-160c0-4.40625 3.585938-8 8-8s8 3.59375 8 8v320c0 4.40625-3.585938 8-8 8s-8-3.59375-8-8zm-16 20.847656v278.304688c-42.441406-43.738282-99.105469-70.144532-160-74.449219v-129.398437c60.894531-4.3125 117.558594-30.71875 160-74.457032zm-281.753906 43.152344h67.507812l4.007813 16h-75.515625zm-54.246094 32h16v96h16v-96h126.296875c.566406 0 1.136719-.039062 1.703125-.046875v32.046875h-96v64h96v32.046875c-.566406 0-1.136719-.046875-1.703125-.046875h-126.296875v-16h-16v16h-16zm144 144v16h-80v-16zm-64 32h48v16h-48zm-112 176h-32v-128h32zm50.664062-24h-34.664062v-88h35.3125l32-32h92.6875c4.414062 0 8 3.59375 8 8s-3.585938 8-8 8h-75.3125l-34.34375 34.34375 11.3125 11.3125 18.34375-18.34375v100.6875h-13.335938zm61.335938 24v-112h25.472656c-.898437 2.511719-1.472656 5.183594-1.472656 8 0 6.167969 2.40625 11.742188 6.238281 16-3.839843 4.257812-6.238281 9.832031-6.238281 16s2.40625 11.742188 6.238281 16c-3.839843 4.257812-6.238281 9.832031-6.238281 16s2.40625 11.742188 6.238281 16c-3.839843 4.257812-6.238281 9.832031-6.238281 16 0 2.808594.488281 5.496094 1.367188 8zm96 0h-48c-4.414062 0-8-3.59375-8-8s3.585938-8 8-8h48c4.414062 0 8 3.59375 8 8s-3.585938 8-8 8zm0 0"/><path d="m272.984375 157.871094c34.832031-4.3125 68.085937-14.949219 98.832031-31.648438l-7.640625-14.0625c-28.976562 15.726563-60.320312 25.769532-93.167969 29.824219zm0 0"/><path d="m392 480v16c57.34375 0 104-46.65625 104-104h-16c0 48.519531-39.480469 88-88 88zm0 0"/><path d="m392 448v16c39.703125 0 72-32.304688 72-72h-16c0 30.878906-25.128906 56-56 56zm0 0"/><path d="m104 16v-16c-57.34375 0-104 46.65625-104 104h16c0-48.519531 39.480469-88 88-88zm0 0"/><path d="m48 104c0-30.878906 25.128906-56 56-56v-16c-39.703125 0-72 32.304688-72 72zm0 0"/></svg>