<svg height="496pt" viewBox="0 0 496 496" width="496pt" xmlns="http://www.w3.org/2000/svg"><path d="m315.761719 80c1.839843-5.921875 4.398437-11.601562 7.519531-16.800781l-10.480469-15.757813 22.640625-22.640625 15.757813 10.480469c6.480469-3.839844 13.601562-6.800781 21.121093-8.722656l3.679688-18.558594h32l3.679688 18.558594c7.519531 1.921875 14.640624 4.882812 21.121093 8.722656l15.757813-10.480469 22.640625 22.640625-10.480469 15.757813c3.839844 6.480469 6.800781 13.601562 8.722656 21.121093l18.558594 3.679688v32l-18.558594 3.679688c-1.921875 7.519531-4.882812 14.640624-8.722656 21.121093l10.480469 15.757813-22.640625 22.640625-15.757813-10.480469c-6.480469 3.839844-13.601562 6.800781-21.121093 8.722656l-3.679688 18.558594h-32l-3.679688-18.558594c-7.519531-1.921875-14.640624-4.882812-21.121093-8.722656l-15.757813 10.480469-22.640625-22.640625 10.480469-15.757813c-3.121094-5.199219-5.679688-10.878906-7.519531-16.800781zm0 0" fill="#cf9e76"/><path d="m352 295.839844v136.160156h-208v-136.160156c0-14.160156 9.28125-26.640625 22.800781-30.71875l57.199219-17.121094 24 16 24-16 57.199219 17.121094c13.519531 4.078125 22.800781 16.558594 22.800781 30.71875zm0 0" fill="#ff826e"/><path d="m180.238281 128c-1.839843 5.921875-4.398437 11.601562-7.519531 16.800781l10.480469 15.757813-22.640625 22.640625-15.757813-10.480469c-6.480469 3.839844-13.601562 6.800781-21.121093 8.722656l-3.679688 18.558594h-32l-3.679688-18.558594c-7.519531-1.921875-14.640624-4.882812-21.121093-8.722656l-15.757813 10.480469-22.640625-22.640625 10.480469-15.757813c-3.839844-6.480469-6.800781-13.601562-8.722656-21.121093l-18.558594-3.679688v-32l18.558594-3.679688c1.921875-7.519531 4.882812-14.640624 8.722656-21.121093l-10.480469-15.757813 22.640625-22.640625 15.757813 10.480469c6.480469-3.839844 13.601562-6.800781 21.121093-8.722656l3.679688-18.558594h32l3.679688 18.558594c7.519531 1.921875 14.640624 4.882812 21.121093 8.722656l15.757813-10.480469 22.640625 22.640625-10.480469 15.757813c3.121094 5.199219 5.679688 10.878906 7.519531 16.800781zm0 0" fill="#cf9e76"/><path d="m432 88v-16l-24-16h-32l-32 24h-192l-32-24h-32l-24 16v16h40v32h-40v16l24 16h32l32-24h60.320312c8.71875-9.839844 21.519532-16 35.679688-16s26.960938 6.160156 35.679688 16h60.320312l32 24h32l24-16v-16h-40v-32zm0 0" fill="#fcd770"/><path d="m456 423.839844v64.160156h-208v-64.160156c0-14.160156 9.28125-26.640625 22.800781-30.71875l57.199219-17.121094 24 16 24-16 57.199219 17.121094c13.519531 4.078125 22.800781 16.558594 22.800781 30.71875zm0 0" fill="#b4dd7f"/><path d="m248 423.839844v64.160156h-208v-64.160156c0-14.160156 9.28125-26.640625 22.800781-30.71875l57.199219-17.121094 24 16 24-16 57.199219 17.121094c13.519531 4.078125 22.800781 16.558594 22.800781 30.71875zm0 0" fill="#fcd770"/><path d="m369.921875 288c-11.761719 0-23.363281-2.71875-33.921875-8-4.320312 4.320312-9.839844 7.039062-15.761719 7.679688-1.199219.242187-2.316406.320312-3.519531.320312h-12.71875v24c0 12.320312 4.640625 23.519531 12.320312 32 3.359376 3.761719 7.28125 6.960938 11.679688 9.519531v22.480469l24 16 24-16v-22.480469c14.320312-8.320312 24-23.757812 24-41.519531v-24zm0 0" fill="#f0d0b4"/><path d="m176 288h-14.078125c-11.761719 0-23.363281-2.71875-33.921875-8-5.121094 5.121094-12.078125 8-19.28125 8h-12.71875v24c0 17.761719 9.679688 33.199219 24 41.519531v22.480469l24 16 24-16v-22.480469c4.398438-2.558593 8.320312-5.757812 11.679688-9.519531 7.679687-8.480469 12.320312-19.679688 12.320312-32v-24zm0 0" fill="#f0d0b4"/><path d="m352 240c-16.078125 0-30.238281 7.921875-38.960938 20-5.679687 7.839844-9.039062 17.519531-9.039062 28h12.71875c1.203125 0 2.320312-.078125 3.519531-.320312 5.921875-.640626 11.441407-3.359376 15.761719-7.679688 10.558594 5.28125 22.160156 8 33.921875 8h30.078125c0-26.480469-21.519531-48-48-48zm0 0" fill="#b27946"/><path d="m182.960938 260c-8.722657-12.078125-22.882813-20-38.960938-20-26.480469 0-48 21.519531-48 48h12.71875c7.203125 0 14.160156-2.878906 19.28125-8 10.558594 5.28125 22.160156 8 33.921875 8h30.078125c0-10.398438-3.359375-20.078125-9.039062-28zm0 0" fill="#b27946"/><path d="m296 160v24c0 17.761719-9.679688 33.199219-24 41.519531v22.480469l-24 16-24-16v-22.480469c-14.320312-8.320312-24-23.757812-24-41.519531v-24h12.71875c7.203125 0 14.160156-2.878906 19.28125-8 10.558594 5.28125 22.160156 8 33.921875 8zm0 0" fill="#f0d0b4"/><path d="m283.761719 128h-.082031c-8.71875-9.839844-21.519532-16-35.679688-16s-26.960938 6.160156-35.679688 16h-.082031c-7.597656 8.480469-12.238281 19.679688-12.238281 32h12.71875c7.203125 0 14.160156-2.878906 19.28125-8 10.558594 5.28125 22.160156 8 33.921875 8h30.078125c0-12.320312-4.640625-23.519531-12.238281-32zm0 0" fill="#b27946"/><path d="m475.808594 77.398438c-1.511719-4.78125-3.441406-9.414063-5.746094-13.847657l11.433594-17.144531-31.894532-31.894531-17.144531 11.433593c-4.441406-2.304687-9.074219-4.226562-13.847656-5.746093l-4.058594-20.199219h-45.109375l-4.050781 20.191406c-4.78125 1.511719-9.414063 3.441406-13.847656 5.746094l-17.144531-11.433594-31.894532 31.894532 11.433594 17.144531c-1.425781 2.738281-2.648438 5.578125-3.769531 8.457031h-22.167969v16h58.664062l32-24h26.910157l18.425781 12.28125v3.71875h-40v48h40v3.71875l-18.425781 12.28125h-26.910157l-32-24h-59.550781c-10.105469-9.878906-23.90625-16-39.113281-16s-29.007812 6.121094-39.113281 16h-59.550781l-32 24h-26.910157l-18.425781-12.28125v-3.71875h40v-48h-40v-3.71875l18.425781-12.28125h26.910157l32 24h58.664062v-16h-22.167969c-1.128906-2.878906-2.351562-5.71875-3.769531-8.457031l11.433594-17.144531-31.894532-31.894532-17.144531 11.433594c-4.441406-2.304688-9.074219-4.226562-13.847656-5.746094l-4.058594-20.191406h-45.109375l-4.050781 20.191406c-4.78125 1.511719-9.414063 3.441406-13.847656 5.746094l-17.136719-11.433594-31.902344 31.902344 11.433594 17.144531c-2.304688 4.441407-4.226562 9.074219-5.746094 13.847657l-20.191406 4.050781v45.109375l20.191406 4.050781c1.511719 4.78125 3.441406 9.414063 5.746094 13.847656l-11.433594 17.144531 31.894532 31.894532 17.144531-11.433594c4.441406 2.304688 9.074219 4.226562 13.847656 5.746094l4.058594 20.191406h45.109375l4.050781-20.191406c4.78125-1.511719 9.414063-3.441406 13.847656-5.746094l17.144531 11.433594 30.398438-30.40625v20.910156c0 18.3125 9.089844 35.496094 24 45.902344v12.144531l-30.023438 9.007813c-10.273437-11.65625-25.265624-19.054688-41.976562-19.054688-30.871094 0-56 25.128906-56 56v24c0 18.3125 9.089844 35.496094 24 45.902344v12.144531l-51.496094 15.449219c-17.046875 5.113281-28.503906 20.511718-28.503906 38.320312v72.183594h432v-72.183594c0-17.800781-11.457031-33.199218-28.503906-38.320312l-51.496094-15.449219v-12.144531c14.910156-10.414063 24-27.589844 24-45.902344v-24c0-30.871094-25.128906-56-56-56-16.710938 0-31.703125 7.398438-41.976562 19.054688l-30.023438-9.007813v-12.144531c14.910156-10.414063 24-27.589844 24-45.902344v-20.910156l30.40625 30.40625 17.144531-11.433594c4.441407 2.304688 9.074219 4.226562 13.847657 5.746094l4.050781 20.191406h45.109375l4.050781-20.191406c4.78125-1.511719 9.414063-3.441406 13.847656-5.746094l17.144531 11.433594 31.894532-31.894532-11.433594-17.144531c2.304688-4.441406 4.226562-9.074219 5.746094-13.847656l20.191406-4.058594v-45.109375zm-227.808594 42.601562c19.3125 0 35.472656 13.769531 39.191406 32h-21.304687c-10.460938 0-20.941407-2.480469-30.3125-7.160156l-5.160157-2.574219-4.078124 4.078125c-3.640626 3.648438-8.496094 5.65625-13.648438 5.65625h-3.878906c3.71875-18.230469 19.878906-32 39.191406-32zm-88.457031 52.894531-14.488281-9.648437-4.328126 2.578125c-5.894531 3.511719-12.285156 6.167969-18.992187 7.871093l-4.886719 1.242188-3.398437 17.0625h-18.890625l-3.40625-17.054688-4.886719-1.242187c-6.707031-1.710937-13.097656-4.359375-18.992187-7.871094l-4.328126-2.574219-14.488281 9.644532-13.351562-13.351563 9.648437-14.488281-2.578125-4.328125c-3.511719-5.894531-6.167969-12.285156-7.871093-18.992187l-1.242188-4.886719-17.0625-3.40625v-18.890625l17.054688-3.40625 1.242187-4.886719c1.710937-6.707031 4.359375-13.097656 7.871094-18.992187l2.574219-4.328126-9.636719-14.488281 13.351562-13.351562 14.488281 9.648437 4.328126-2.578125c5.894531-3.511719 12.285156-6.167969 18.992187-7.871093l4.886719-1.242188 3.398437-17.0625h18.890625l3.40625 17.054688 4.886719 1.242187c6.707031 1.710937 13.097656 4.359375 18.992187 7.871094l4.328126 2.574219 14.488281-9.644532 13.351562 13.351563-9.648437 14.488281 2.585937 4.335938c.902344 1.519531 1.664063 3.132812 2.457031 4.726562h-13.625l-32-24h-37.089843l-29.574219 19.71875v28.28125h40v16h-40v28.28125l29.574219 19.71875h37.089843l32-24h13.625c-.792968 1.59375-1.546874 3.207031-2.457031 4.726562l-2.585937 4.335938 9.648437 14.488281zm26.289062-36.894531h11.648438c-3.390625 7.113281-5.359375 15.03125-5.449219 23.398438l-9.96875-14.949219c1.425781-2.730469 2.648438-5.570313 3.769531-8.449219zm-41.832031 112c19.3125 0 35.472656 13.769531 39.191406 32h-21.304687c-10.460938 0-20.941407-2.480469-30.3125-7.160156l-5.160157-2.574219-4.078124 4.078125c-3.640626 3.648438-8.496094 5.65625-13.648438 5.65625h-3.878906c3.71875-18.230469 19.878906-32 39.191406-32zm-40 64v-16h4.6875c7.496094 0 14.625-2.320312 20.585938-6.609375 10.285156 4.335937 21.460937 6.609375 32.613281 6.609375h22.113281v16c0 14.199219-7.664062 27.464844-20.007812 34.601562l-3.992188 2.308594v22.808594l-16 10.664062-16-10.664062v-22.808594l-3.992188-2.308594c-12.34375-7.136718-20.007812-20.402343-20.007812-34.601562zm136 168h-192v-56.183594c0-10.6875 6.871094-19.921875 17.105469-22.992187l53.589843-16.070313 25.304688 16.863282 25.304688-16.875 53.589843 16.074218c10.074219 3.023438 17.105469 12.480469 17.105469 23zm190.894531-79.175781c10.074219 3.015625 17.105469 12.472656 17.105469 22.992187v56.183594h-192v-56.183594c0-10.6875 6.871094-19.921875 17.105469-22.992187l53.589843-16.070313 25.304688 16.863282 25.304688-16.875zm-58.902343-54.222657-3.992188 2.308594v22.808594l-16 10.664062-16-10.664062v-22.808594l-3.992188-2.308594c-12.34375-7.136718-20.007812-20.402343-20.007812-34.601562v-16h4.6875c7.496094 0 14.625-2.320312 20.585938-6.609375 10.285156 4.335937 21.460937 6.609375 32.613281 6.609375h22.113281v16c0 14.199219-7.664062 27.464844-20.007812 34.601562zm-19.992188-98.601562c19.3125 0 35.472656 13.769531 39.191406 32h-21.304687c-10.460938 0-20.941407-2.480469-30.3125-7.160156l-5.160157-2.574219-4.078124 4.078125c-3.640626 3.648438-8.496094 5.65625-13.648438 5.65625h-3.878906c3.71875-18.230469 19.878906-32 39.191406-32zm-51.023438 17.046875c-3.167968 7.015625-4.976562 14.769531-4.976562 22.953125v24c0 18.3125 9.089844 35.496094 24 45.902344v12.144531l-51.496094 15.449219c-8.449218 2.535156-15.519531 7.59375-20.503906 14.214844-4.992188-6.621094-12.0625-11.679688-20.503906-14.214844l-51.496094-15.449219v-12.144531c14.910156-10.414063 24-27.589844 24-45.902344v-24c0-8.183594-1.808594-15.9375-4.976562-22.953125l27.671874-8.304687 25.304688 16.875 25.304688-16.875zm-32.984374-46.445313-3.992188 2.308594v22.808594l-16 10.664062-16-10.664062v-22.808594l-3.992188-2.308594c-12.34375-7.136718-20.007812-20.402343-20.007812-34.601562v-16h4.6875c7.496094 0 14.625-2.320312 20.585938-6.609375 10.285156 4.335937 21.460937 6.609375 32.613281 6.609375h22.113281v16c0 14.199219-7.664062 27.464844-20.007812 34.601562zm35.976562-59.203124c-.089844-8.375-2.058594-16.285157-5.449219-23.398438h11.648438c1.128906 2.878906 2.351562 5.71875 3.769531 8.457031zm176.03125-45.949219-17.054688 3.40625-1.242187 4.886719c-1.710937 6.707031-4.359375 13.097656-7.871094 18.992187l-2.574219 4.328125 9.644532 14.488281-13.351563 13.351563-14.488281-9.644532-4.328125 2.574219c-5.894531 3.511719-12.285156 6.167969-18.992187 7.871094l-4.886719 1.242187-3.40625 17.054688h-18.890625l-3.40625-17.054688-4.886719-1.242187c-6.707031-1.710937-13.097656-4.359375-18.992187-7.871094l-4.328126-2.574219-14.488281 9.644532-13.351562-13.351563 9.648437-14.488281-2.585937-4.335938c-.902344-1.519531-1.664063-3.132812-2.457031-4.726562h13.625l32 24h37.089843l29.574219-19.71875v-28.28125h-40v-16h40v-28.28125l-29.574219-19.71875h-37.089843l-32 24h-13.625c.792968-1.59375 1.546874-3.207031 2.457031-4.726562l2.585937-4.335938-9.648437-14.488281 13.351562-13.351563 14.488281 9.644532 4.328126-2.574219c5.894531-3.511719 12.285156-6.167969 18.992187-7.871094l4.886719-1.242187 3.398437-17.054688h18.890625l3.40625 17.054688 4.886719 1.242187c6.707031 1.710937 13.097656 4.359375 18.992187 7.871094l4.328126 2.574219 14.488281-9.644532 13.351562 13.351563-9.648437 14.488281 2.578125 4.328125c3.511719 5.894531 6.167969 12.285156 7.871093 18.992187l1.242188 4.886719 17.0625 3.40625zm0 0"/><path d="m256 72h16v16h-16zm0 0"/><path d="m224 72h16v16h-16zm0 0"/><path d="m48 320h16v16h-16zm0 0"/><path d="m32 336h16v16h-16zm0 0"/><path d="m48 352h16v16h-16zm0 0"/><path d="m64 336h16v16h-16zm0 0"/><path d="m16 224h16v16h-16zm0 0"/><path d="m0 240h16v16h-16zm0 0"/><path d="m16 256h16v16h-16zm0 0"/><path d="m32 240h16v16h-16zm0 0"/><path d="m432 320h16v16h-16zm0 0"/><path d="m448 336h16v16h-16zm0 0"/><path d="m432 352h16v16h-16zm0 0"/><path d="m416 336h16v16h-16zm0 0"/><path d="m464 224h16v16h-16zm0 0"/><path d="m480 240h16v16h-16zm0 0"/><path d="m464 256h16v16h-16zm0 0"/><path d="m448 240h16v16h-16zm0 0"/></svg>